<?xml version="1.0" encoding="UTF-8" standalone="no"?>
<svg
   xmlns:dc="http://purl.org/dc/elements/1.1/"
   xmlns:cc="http://creativecommons.org/ns#"
   xmlns:rdf="http://www.w3.org/1999/02/22-rdf-syntax-ns#"
   xmlns:svg="http://www.w3.org/2000/svg"
   xmlns="http://www.w3.org/2000/svg"
   xmlns:sodipodi="http://sodipodi.sourceforge.net/DTD/sodipodi-0.dtd"
   xmlns:inkscape="http://www.inkscape.org/namespaces/inkscape"
   inkscape:version="1.0 (4035a4fb49, 2020-05-01)"
   sodipodi:docname="search-w.svg"
   xml:space="preserve"
   style="enable-background:new 0 0 96 96;"
   viewBox="0 0 96 96"
   y="0px"
   x="0px"
   id="Layer_1"
   version="1.1"><metadata
   id="metadata11"><rdf:RDF><cc:Work
       rdf:about=""><dc:format>image/svg+xml</dc:format><dc:type
         rdf:resource="http://purl.org/dc/dcmitype/StillImage" /><dc:title></dc:title></cc:Work></rdf:RDF></metadata><defs
   id="defs9" /><sodipodi:namedview
   inkscape:current-layer="Layer_1"
   inkscape:window-maximized="1"
   inkscape:window-y="0"
   inkscape:window-x="0"
   inkscape:cy="47.886659"
   inkscape:cx="48"
   inkscape:zoom="8.8229167"
   showgrid="false"
   id="namedview7"
   inkscape:window-height="1015"
   inkscape:window-width="1920"
   inkscape:pageshadow="2"
   inkscape:pageopacity="0"
   guidetolerance="10"
   gridtolerance="10"
   objecttolerance="10"
   borderopacity="1"
   bordercolor="#666666"
   pagecolor="#ffffff" />
<style
   id="style2"
   type="text/css">
	.st0{fill:#333333;}
</style>
<g
   style="fill:#ffffff"
   id="XMLID_2_">
	<path
   style="fill:#ffffff"
   d="M39.3,18c-11.8,0-21.4,9.6-21.4,21.4c0,11.8,9.6,21.4,21.4,21.4c5,0,9.6-1.7,13.2-4.5l4.9,4.9   c-1.1,1.1-1.1,2.8,0,3.9l12.1,12.1c1.1,1.1,2.8,1.1,3.9,0l3.9-3.9c1.1-1.1,1.1-2.8,0-3.9L65.2,57.3c-1.1-1.1-2.8-1.1-3.9,0l-5-5   c2.7-3.6,4.4-8.1,4.4-12.9C60.7,27.6,51.1,18,39.3,18z M39.3,22.5c9.3,0,16.9,7.6,16.9,16.9c0,9.3-7.6,16.9-16.9,16.9   c-9.3,0-16.9-7.6-16.9-16.9C22.4,30.1,30,22.5,39.3,22.5z"
   class="st0"
   id="XMLID_6_" />
</g>
</svg>
